 http://img190.imageshack.us/img190/9337/my702thelincolnlawyerte.jpg

Country.......: USA
Genre.........: Thriller, Drama, Crime
Date release..: 18.03.2011 [World]
Director......: Brad Furman
Writers.......: John Romano, Michael Connelly
Duration......: 118 min.
More..........: http://www.imdb.com/title/tt1189340
Trailer.......: http://www.imdb.com/video/imdb/vi1627364121
Trailer.......:

Pilot :
A lawyer conducts business from the back of his Lincoln town car while representing a high-profile client in Beverly Hills. 

Cats :
Matthew McConaughey   	 ...  	Mick Haller
Marisa Tomei 	... 	Maggie McPherson
Ryan Phillippe 	... 	Louis Roulet
William H. Macy 	... 	Frank Levin
Josh Lucas 	... 	Ted Minton
John Leguizamo 	... 	Val Valenzuela
Michael Pena 	... 	Jesus Martinez
Bob Gunton 	... 	Cecil Dobbs
Frances Fisher 	... 	Mary Windsor
Bryan Cranston 	... 	Detective Lankford
Trace Adkins 	... 	Eddie Vogel
Laurence Mason 	... 	Earl
Margarita Levieva 	... 	Reggie Campo
Pell James 	... 	Lorna
Shea Whigham 	... 	Corliss 

Data Technical :
!!! SAMPLE !!!
Audio.....: English
Subtitles.: None
Format                           : AVI
Format/Info                      : Audio Video Interleave
File size                        : 1.87 GiB
Duration                         : 1h 58mn
Overall bit rate                 : 2 257 Kbps
Writing application              : Nandub v1.0rc2
Writing library                  : Nandub build 1853/release
Video
ID                               : 0
Format                           : MPEG-4 Visual
Format profile                   : Advanced Simple@L5
Format settings, BVOP            : Yes
Format settings, QPel            : Yes
Format settings, GMC             : No warppoints
Format settings, Matrix          : Default (H.263)
Muxing mode                      : Packed bitstream
Codec ID                         : XVID
Codec ID/Hint                    : XviD
Duration                         : 1h 58mn
Bit rate                         : 1 799 Kbps
Width                            : 720 pixels
Height                           : 304 pixels
Display aspect ratio             : 2.35:1
Frame rate                       : 24.000 fps
Color space                      : YUV
Chroma subsampling               : 4:2:0
Bit depth                        : 8 bits
Scan type                        : Progressive
Bits/(Pixel*Frame)               : 0.343
Stream size                      : 1.49 GiB (80%)
Writing library                  : XviD 1.2.1 (UTC 2008-12-04)
Audio
ID                               : 1
Format                           : AC-3
Format/Info                      : Audio Coding 3
Mode extension                   : CM (complete main)
Codec ID                         : 2000
Duration                         : 1h 58mn
Bit rate mode                    : Constant
Bit rate                         : 448 Kbps
Channel(s)                       : 6 channels
Channel positions                : Front: L C R, Side: L R, LFE
Sampling rate                    : 48.0 KHz
Bit depth                        : 16 bits
Stream size                      : 379 MiB (20%)
Alignment                        : Split accross interleaves
Interleave, duration             : 42 ms (1.00 video frame)
Interleave, preload duration     : 500 ms

Screen : 
http://img148.imageshack.us/img148/5873/thelincolnlawyer2011s1.jpg 
http://img580.imageshack.us/img580/2665/thelincolnlawyer2011s2.jpg 
http://img28.imageshack.us/img28/4479/thelincolnlawyer2011s3.jpg 
http://img863.imageshack.us/img863/1739/thelincolnlawyer2011s4.jpg 
http://img31.imageshack.us/img31/702/thelincolnlawyer2011s5.jpg